<?xml version="1.0" encoding="UTF-8" standalone="no"?>
<svg
   viewBox="0 0 16 16"
   version="1.1"
   id="svg1"
   sodipodi:docname="ies16.svg"
   inkscape:version="1.3.2 (091e20e, 2023-11-25, custom)"
   xml:space="preserve"
   xmlns:inkscape="http://www.inkscape.org/namespaces/inkscape"
   xmlns:sodipodi="http://sodipodi.sourceforge.net/DTD/sodipodi-0.dtd"
   xmlns="http://www.w3.org/2000/svg"
   xmlns:svg="http://www.w3.org/2000/svg"><defs
     id="defs1" /><sodipodi:namedview
     id="namedview1"
     pagecolor="#ffffff"
     bordercolor="#000000"
     borderopacity="0.25"
     inkscape:showpageshadow="2"
     inkscape:pageopacity="0.0"
     inkscape:pagecheckerboard="0"
     inkscape:deskcolor="#d1d1d1"
     inkscape:zoom="16"
     inkscape:cx="12.6875"
     inkscape:cy="12.65625"
     inkscape:window-width="1366"
     inkscape:window-height="705"
     inkscape:window-x="-8"
     inkscape:window-y="-8"
     inkscape:window-maximized="1"
     inkscape:current-layer="svg1" /><path
     id="text1-5"
     style="font-style:oblique;font-size:10.4462px;font-family:FreeSans;-inkscape-font-specification:'FreeSans Oblique';fill:#1c3b5d;fill-opacity:1;stroke-width:7.8993"
     d="m 6.5955823,3.0182878 c -1.0021385,0 -1.8358485,0.4788456 -2.5025615,1.4368433 -0.662571,0.9521911 -0.993369,2.1523065 -0.993369,3.5980121 0,1.4108689 0.332701,2.5865748 0.999414,3.5271538 0.666713,0.934775 1.531105,1.401415 2.591219,1.401415 0.6832766,0 1.2721936,-0.167128 1.7691223,-0.503879 0.4969289,-0.342558 0.923358,-0.866286 1.2794899,-1.574624 L 8.3103009,9.9623728 C 7.8547829,10.583619 7.3097642,10.8914 6.6761802,10.8914 6.1461234,10.8914 5.7101748,10.695728 5.3664668,10.300917 5.0268978,9.9002994 4.8184978,9.3643665 4.7398188,8.6908652 h 5.4463972 l 0.0061,-0.452704 C 10.192278,6.6705289 9.8595762,5.4073222 9.1928643,4.4551311 8.5261353,3.4971334 7.6598374,3.0182878 6.5955823,3.0182878 Z m 6.8770077,0 c -0.641864,0 -1.169638,0.2689014 -1.583746,0.8030575 -0.409966,0.5283499 -0.614559,1.1681233 -0.614559,1.9171026 0,1.1612091 0.546923,2.1251016 1.640165,2.8973055 l 0.570231,0.4015287 c 0.492787,0.3483627 0.739484,0.7049626 0.739484,1.0707429 0,0.197405 -0.06886,0.372605 -0.205523,0.523562 -0.136657,0.150959 -0.316389,0.224386 -0.540008,0.224386 -0.207052,0 -0.444119,-0.09783 -0.713288,-0.295243 -0.265028,-0.203212 -0.4984,-0.46611 -0.697171,-0.7912478 l -1.043741,1.5943048 c 0.588032,1.079924 1.37594,1.617925 2.361514,1.617925 0.741252,0 1.330167,-0.279238 1.769122,-0.842423 0.443094,-0.563187 0.664933,-1.268119 0.664933,-2.109995 0,-0.6328586 -0.122399,-1.1830638 -0.366719,-1.6533533 C 15.208959,7.905651 14.759572,7.4431444 14.105283,6.9902726 l -0.620601,-0.433021 c -0.26917,-0.1857934 -0.439384,-0.3324487 -0.509781,-0.4369575 -0.06625,-0.1103162 -0.09873,-0.2304949 -0.09873,-0.3582265 0,-0.1683764 0.05352,-0.3069603 0.161195,-0.4172753 0.107667,-0.1161185 0.256829,-0.1732072 0.447318,-0.1732072 0.34785,0 0.736092,0.2935089 1.162623,0.8857254 L 15.697089,4.5889731 C 15.427922,4.0838477 15.097013,3.6947677 14.707753,3.4276899 14.322634,3.1548056 13.911545,3.0182878 13.47259,3.0182878 Z M 0.1799968,3.2623543 v 9.4752897 h 1.702629 V 3.2623543 Z m 6.4961834,1.7675135 c 0.4348128,0 0.8173444,0.1690005 1.144489,0.4999426 0.3312857,0.3309447 0.5531235,0.7589038 0.6649321,1.2872535 H 4.8143708 C 5.0048598,6.2306541 5.2113558,5.8211009 5.4349738,5.5888586 5.7911058,5.2172722 6.2040983,5.0298678 6.6761802,5.0298678 Z" /></svg>
