<?xml version="1.0" encoding="UTF-8" standalone="no"?>
<svg
   width="24"
   height="24"
   viewBox="0 0 0.80736 0.80700525"
   version="1.1"
   id="svg1"
   sodipodi:docname="laravel_logo.svg"
   inkscape:version="1.4.2 (f4327f4, 2025-05-13)"
   xmlns:inkscape="http://www.inkscape.org/namespaces/inkscape"
   xmlns:sodipodi="http://sodipodi.sourceforge.net/DTD/sodipodi-0.dtd"
   xmlns="http://www.w3.org/2000/svg"
   xmlns:svg="http://www.w3.org/2000/svg"
   xmlns:rdf="http://www.w3.org/1999/02/22-rdf-syntax-ns#"
   xmlns:cc="http://creativecommons.org/ns#"
   xmlns:dc="http://purl.org/dc/elements/1.1/">
  <defs
     id="defs1" />
  <sodipodi:namedview
     id="namedview1"
     pagecolor="#ffffff"
     bordercolor="#000000"
     borderopacity="0.25"
     inkscape:showpageshadow="2"
     inkscape:pageopacity="0.0"
     inkscape:pagecheckerboard="0"
     inkscape:deskcolor="#d1d1d1"
     inkscape:zoom="5.6568542"
     inkscape:cx="18.384776"
     inkscape:cy="-6.2755727"
     inkscape:window-width="1366"
     inkscape:window-height="697"
     inkscape:window-x="-8"
     inkscape:window-y="-8"
     inkscape:window-maximized="1"
     inkscape:current-layer="svg1" />
  <title
     id="title1">laravel</title>
  <path
     fill="#fb503b"
     d="m 0.80412124,0.38208405 c -0.005758,-0.006811 -0.0796498,-0.11691928 -0.0921251,-0.13508152 -0.0134349,-0.018162 -0.0191929,-0.0147568 -0.0278293,-0.0136219 -0.008637,0.001133 -0.10172142,0.0204326 -0.11227744,0.0215675 -0.0105558,0.002271 -0.0172735,0.006811 -0.0105558,0.0181625 0.005758,0.0102166 0.0671745,0.11237877 0.0806094,0.13621666 L 0.39723555,0.4785708 0.20338904,0.09375875 c -0.007677,-0.01362186 -0.009596,-0.01816201 -0.0268698,-0.01702692 -0.0172735,0.0011333 -0.15258214,0.01475684 -0.1621785,0.01475684 -0.0095963,0.0011333 -0.0201525,0.0056755 -0.01055584,0.03291886 0.0095963,0.0272433 0.16313813,0.41773112 0.16697668,0.42908251 0.003839,0.011351 0.015354,0.0295137 0.0412644,0.0227026 0.0268698,-0.007947 0.11899488,-0.0363244 0.16985557,-0.0522164 0.0268697,0.0567569 0.0806094,0.17254112 0.0911655,0.1895682 0.0134349,0.0227031 0.0230312,0.0181625 0.0431836,0.011351 0.0163139,-0.005677 0.25142468,-0.10556796 0.26198067,-0.11124367 0.0105562,-0.005675 0.0172735,-0.009081 0.009596,-0.0215675 C 0.78204932,0.58300327 0.72063282,0.484246 0.68800512,0.4331648 0.71007672,0.4263538 0.78972658,0.401381 0.79836327,0.3979754 c 0.009596,-0.003404 0.0115158,-0.009081 0.005758,-0.0158913 z M 0.35980973,0.4899222 c -0.002878,0.001133 -0.1401069,0.03973 -0.14682433,0.0420001 -0.007677,0.002271 -0.007677,0.001133 -0.007677,-0.002271 -0.00192,-0.003404 -0.16313814,-0.39843373 -0.16601706,-0.4029743 -0.0019199,-0.004541 -0.0019199,-0.009081 0,-0.009081 0.0019199,0 0.12955091,-0.0136219 0.13338942,-0.0136219 0.004798,0 0.003839,0.001133 0.005758,0.004541 0,0 0.17945193,0.36664989 0.18233086,0.37232558 0.003839,0.005675 0.00192,0.007947 -9.5807e-4,0.009081 z m 0.38577372,0.0851355 c 0.00192,0.004541 0.004799,0.006811 -0.002878,0.009081 -0.006718,0.003404 -0.23127248,0.0930814 -0.23607066,0.0953516 -0.004798,0.002271 -0.007677,0.003404 -0.0134349,-0.006811 -0.005758,-0.0102166 -0.0786902,-0.15891942 -0.0786902,-0.15891942 l 0.23894943,-0.073784 c 0.005758,-0.002271 0.007677,-0.003404 0.0115158,0.003404 0.003838,0.007945 0.0786902,0.1282707 0.0806094,0.13167613 z m 0.0153544,-0.19978446 c -0.005758,0.001133 -0.0930847,0.0272432 -0.0930847,0.0272432 L 0.59588025,0.28673245 c -0.00192,-0.003404 -0.003838,-0.006811 9.5807e-4,-0.007947 0.004799,-0.001133 0.0863673,-0.018162 0.0902058,-0.0192975 0.003838,-0.001133 0.006718,-0.002271 0.0115158,0.005675 0.004799,0.006811 0.0662149,0.0998922 0.0690938,0.10329765 0.002878,0.003404 -9.5807e-4,0.005675 -0.006718,0.006811 z"
     id="path1"
     style="fill:#000000;fill-opacity:1;stroke-width:0.010437" />
  <metadata
     id="metadata1">
    <rdf:RDF>
      <cc:Work
         rdf:about="">
        <dc:title>laravel</dc:title>
      </cc:Work>
    </rdf:RDF>
  </metadata>
</svg>
