<?xml version="1.0" encoding="UTF-8" standalone="no"?>
<svg
   height="24px"
   viewBox="0 -960 960 960"
   width="24px"
   fill="#A96424"
   version="1.1"
   id="svg1"
   sodipodi:docname="view.svg"
   inkscape:version="1.4.2 (f4327f4, 2025-05-13)"
   xmlns:inkscape="http://www.inkscape.org/namespaces/inkscape"
   xmlns:sodipodi="http://sodipodi.sourceforge.net/DTD/sodipodi-0.dtd"
   xmlns="http://www.w3.org/2000/svg"
   xmlns:svg="http://www.w3.org/2000/svg">
  <defs
     id="defs1" />
  <sodipodi:namedview
     id="namedview1"
     pagecolor="#ffffff"
     bordercolor="#000000"
     borderopacity="0.25"
     inkscape:showpageshadow="2"
     inkscape:pageopacity="0.0"
     inkscape:pagecheckerboard="0"
     inkscape:deskcolor="#d1d1d1"
     inkscape:zoom="15.232259"
     inkscape:cx="12.604828"
     inkscape:cy="12.834603"
     inkscape:window-width="1366"
     inkscape:window-height="697"
     inkscape:window-x="-8"
     inkscape:window-y="-8"
     inkscape:window-maximized="1"
     inkscape:current-layer="svg1" />
  <path
     id="path3"
     style="fill:#62623c;fill-opacity:1;stroke-width:1.32096"
     d="m 480,-823.4375 c -105.6765,0 -201.4816,31.14665 -287.34375,93.67187 C 106.79409,-667.24041 44.081797,-583.91527 4.4531275,-480 44.081818,-376.08473 106.79409,-292.91599 192.65625,-230.39063 278.5184,-167.86542 374.3235,-136.56251 480,-136.5625 c 105.6765,0 201.40346,-31.30292 287.26563,-93.82813 C 853.12777,-292.91599 915.91821,-376.08474 955.54687,-480 915.91821,-583.91527 853.12777,-667.24041 767.26563,-729.76563 681.40346,-792.29085 585.6765,-823.4375 480,-823.4375 Z m 0,105.625 c 77.49601,0 148.36967,21.08877 212.65625,63.35937 64.28658,42.2706 113.54576,100.47957 147.89062,174.45313 -34.34486,73.97354 -83.60404,132.02626 -147.89062,174.29687 -64.28658,42.2706 -135.16024,63.4375 -212.65625,63.4375 -77.49615,0 -148.44781,-21.1669 -212.73437,-63.4375 C 202.97916,-347.97374 153.64174,-406.02645 119.29687,-480 153.64173,-553.97355 202.97916,-612.18253 267.26563,-654.45313 331.55219,-696.72373 402.50385,-717.8125 480,-717.8125 Z m 0,52.89062 c -51.07698,0 -94.67511,18.03449 -130.78125,54.14062 C 313.11262,-574.67511 295,-531.07699 295,-480 c 0,51.07698 18.11262,94.59698 54.21875,130.70312 36.10614,36.10613 79.70427,54.21875 130.78125,54.21875 51.07698,0 94.59697,-18.11262 130.70313,-54.21875 36.10613,-36.10614 54.21874,-79.62615 54.21874,-130.70312 0,-51.07699 -18.11261,-94.6751 -54.21874,-130.78126 C 574.59698,-646.88739 531.07698,-664.92188 480,-664.92188 Z m 4.92187,105.625 c 22.01595,0 40.76071,7.71383 56.17188,23.125 15.41115,15.41115 23.125,34.15594 23.125,56.17188 0,22.01594 -7.71385,40.68258 -23.125,56.09374 -15.41117,15.41116 -34.15593,23.12501 -56.17188,23.125 -22.01594,0 -40.76071,-7.71384 -56.17187,-23.125 -15.41116,-15.41116 -23.04687,-34.07779 -23.04687,-56.09374 0,-22.01595 7.63571,-40.76073 23.04687,-56.17188 15.41116,-15.41117 34.15594,-23.125 56.17187,-23.125 z" />
  <path
     style="fill:#62623c;fill-opacity:1"
     d="M 480,-480 Z"
     id="path9" />
</svg>
