<?xml version="1.0" encoding="UTF-8" standalone="no"?>
<svg
   viewBox="0 0 16 16"
   version="1.1"
   id="svg1"
   sodipodi:docname="ies16.svg"
   inkscape:version="1.3.2 (1:1.3.2+202311252150+091e20ef0f)"
   xml:space="preserve"
   xmlns:inkscape="http://www.inkscape.org/namespaces/inkscape"
   xmlns:sodipodi="http://sodipodi.sourceforge.net/DTD/sodipodi-0.dtd"
   xmlns="http://www.w3.org/2000/svg"
   xmlns:svg="http://www.w3.org/2000/svg"><defs
     id="defs1" /><sodipodi:namedview
     id="namedview1"
     pagecolor="#ffffff"
     bordercolor="#000000"
     borderopacity="0.25"
     inkscape:showpageshadow="2"
     inkscape:pageopacity="0.0"
     inkscape:pagecheckerboard="0"
     inkscape:deskcolor="#d1d1d1"
     inkscape:zoom="32"
     inkscape:cx="2.09375"
     inkscape:cy="15.375"
     inkscape:window-width="1920"
     inkscape:window-height="1008"
     inkscape:window-x="0"
     inkscape:window-y="0"
     inkscape:window-maximized="1"
     inkscape:current-layer="svg1" /><path
     id="text1"
     style="font-style:oblique;font-size:10.4462px;font-family:FreeSans;-inkscape-font-specification:'FreeSans Oblique';opacity:1;fill:#1c3b5d;fill-opacity:1;stroke-width:6.38803"
     d="m 6.5694243,0.07348925 c -1.0191589,0 -1.867029,0.30791949 -2.5450647,0.92395566 C 3.3505355,1.6097474 3.0141205,2.3814764 3.0141205,3.3111309 c 0,0.9072531 0.338351,1.6632858 1.0163868,2.2681211 0.6780355,0.6011019 1.5571092,0.9011732 2.6352278,0.9011732 0.6948813,0 1.2938002,-0.1074706 1.7991687,-0.3240172 C 8.9702723,5.9361283 9.4039437,5.5993473 9.7661241,5.1438538 L 8.3132652,4.5388527 C 7.8500109,4.9383427 7.2957355,5.1362596 6.6513911,5.1362596 6.1123318,5.1362596 5.6689792,5.0104334 5.3194329,4.7565519 4.9740978,4.4989366 4.7621585,4.1543073 4.6821422,3.7212152 h 5.5388968 l 0.0062,-0.2911092 C 10.227204,2.4220469 9.8888533,1.6097474 9.2108176,0.99744491 8.5327652,0.38140874 7.6517545,0.07348925 6.5694243,0.07348925 Z m 6.9938047,0 c -0.652765,0 -1.189503,0.17291585 -1.610644,0.51640255 -0.416929,0.33975323 -0.624996,0.7511565 -0.624996,1.2327846 0,0.7467103 0.556211,1.3665371 1.668021,1.8630995 l 0.579915,0.2582013 c 0.501157,0.224013 0.752043,0.4533229 0.752043,0.6885366 0,0.1269406 -0.07003,0.239602 -0.209013,0.3366744 -0.138978,0.097073 -0.321762,0.1442896 -0.549179,0.1442896 -0.210569,0 -0.451662,-0.062912 -0.725403,-0.189854 C 12.574443,4.792949 12.337108,4.6238937 12.134961,4.4148151 l -1.061468,1.0252107 c 0.598019,0.6944407 1.399309,1.0403994 2.401623,1.0403994 0.75384,0 1.352758,-0.1795619 1.799168,-0.5417164 0.450618,-0.3621547 0.676225,-0.8154575 0.676225,-1.3568225 0,-0.4069572 -0.124477,-0.7607642 -0.372948,-1.0631819 C 15.329087,3.2162867 14.872068,2.9188739 14.206666,2.6276567 L 13.575525,2.3492045 C 13.301784,2.2297308 13.128679,2.1354248 13.057086,2.0682209 12.989707,1.9972822 12.956677,1.9200021 12.956677,1.8378648 c 0,-0.1082736 0.05443,-0.1973894 0.163933,-0.268327 0.109496,-0.07467 0.261191,-0.11138 0.454916,-0.11138 0.353757,0 0.748593,0.1887395 1.182368,0.5695617 L 15.825507,1.0835116 C 15.551769,0.75869294 15.21524,0.5084967 14.819369,0.3367533 14.427709,0.16127641 14.009638,0.07348925 13.563229,0.07348925 Z M 0.04487832,0.23043517 V 6.3234793 H 1.776424 V 0.23043517 Z M 6.6513911,1.367027 c 0.4421973,0 0.8312259,0.108675 1.1639266,0.321486 0.3369121,0.2128124 0.5625174,0.4880097 0.6762251,0.8277628 H 4.7579611 C 4.9516857,2.1391873 5.161689,1.8758259 5.3891046,1.7264838 5.7512851,1.4875365 6.1712914,1.367027 6.6513911,1.367027 Z" /><text
     xml:space="preserve"
     style="font-weight:600;font-size:9.60077px;font-family:FreeSans;-inkscape-font-specification:'FreeSans Semi-Bold';fill:#cc8535;fill-opacity:1;stroke-width:5.03476"
     x="-0.55659968"
     y="11.421271"
     id="text2"
     transform="scale(0.71592954,1.3967855)"><tspan
       sodipodi:role="line"
       id="tspan1"
       x="-0.55659968"
       y="11.421271"
       style="fill:#cc8535;fill-opacity:1;stroke-width:5.03476">m</tspan></text><text
     xml:space="preserve"
     style="font-weight:600;font-size:10.1163px;font-family:FreeSans;-inkscape-font-specification:'FreeSans Semi-Bold';fill:#cc8535;fill-opacity:1;stroke-width:5.30513"
     x="5.9955635"
     y="13.402628"
     id="text2-7"
     transform="scale(0.83807657,1.1932084)"><tspan
       sodipodi:role="line"
       id="tspan1-0"
       x="5.9955635"
       y="13.402628"
       style="fill:#cc8535;fill-opacity:1;stroke-width:5.30513">R</tspan></text><path
     d="m 14.169878,10.702854 v 2.001113 l 4.048268,-2.72e-4 v 1.323487 l -5.636453,2.72e-4 V 6.3088752 l 5.636453,-2.716e-4 v 1.3234875 l -4.048268,2.716e-4 v 1.7470035 h 3.695177 v 1.3234878 z"
     id="text2-7-0"
     style="font-weight:600;font-size:10.5879px;font-family:FreeSans;-inkscape-font-specification:'FreeSans Semi-Bold';fill:#cc8535;stroke-width:5.55239"
     transform="scale(0.87714743,1.1400592)"
     aria-label="E"
     sodipodi:nodetypes="ccccccccccccc" /></svg>
