<?xml version="1.0" encoding="UTF-8" standalone="no"?>
<svg
   width="2500"
   height="1713"
   viewBox="0 0 84.1 57.6"
   version="1.1"
   id="svg1"
   sodipodi:docname="laraveltask.svg"
   inkscape:version="1.4.2 (f4327f4, 2025-05-13)"
   xmlns:inkscape="http://www.inkscape.org/namespaces/inkscape"
   xmlns:sodipodi="http://sodipodi.sourceforge.net/DTD/sodipodi-0.dtd"
   xmlns="http://www.w3.org/2000/svg"
   xmlns:svg="http://www.w3.org/2000/svg"
   xmlns:rdf="http://www.w3.org/1999/02/22-rdf-syntax-ns#"
   xmlns:cc="http://creativecommons.org/ns#"
   xmlns:dc="http://purl.org/dc/elements/1.1/">
  <defs
     id="defs1" />
  <sodipodi:namedview
     id="namedview1"
     pagecolor="#ffffff"
     bordercolor="#000000"
     borderopacity="0.25"
     inkscape:showpageshadow="2"
     inkscape:pageopacity="0.0"
     inkscape:pagecheckerboard="0"
     inkscape:deskcolor="#d1d1d1"
     inkscape:zoom="0.21341168"
     inkscape:cx="1511.1638"
     inkscape:cy="1178.4735"
     inkscape:window-width="1366"
     inkscape:window-height="697"
     inkscape:window-x="-8"
     inkscape:window-y="-8"
     inkscape:window-maximized="1"
     inkscape:current-layer="svg1"
     showguides="false" />
  <title
     id="title1">laravel</title>
  <rect
     style="fill:none;fill-opacity:1;stroke:#575757;stroke-width:6.22931;stroke-linecap:round;stroke-linejoin:round;stroke-dasharray:none;stroke-opacity:0.336207"
     id="rect1"
     width="50.958687"
     height="50.958691"
     x="21.496094"
     y="3.5393143"
     ry="8.5083828"
     inkscape:export-filename="..\Desktop\ies\_dwes25\md\Desktop\ies\_dwes25\md\img\laraveltask.png"
     inkscape:export-xdpi="96"
     inkscape:export-ydpi="96" />
  <path
     fill="#fb503b"
     d="m 83.7625,26.924222 c -0.6,-0.6 -8.3,-10.3 -9.6,-11.9 -1.4,-1.6 -2,-1.3 -2.9,-1.2 -0.9,0.1 -10.6,1.8 -11.7,1.9 -1.1,0.2 -1.8,0.6 -1.1,1.6 0.6,0.9 7,9.9 8.4,12 l -25.5,6.1 -20.2,-33.8999988 c -0.8,-1.19999991 -1,-1.59999991 -2.8,-1.49999991 -1.8,0.1 -15.9,1.29999991 -16.9,1.29999991 -1,0.1 -2.1,0.5 -1.1,2.9 1,2.4 17,36.7999988 17.4,37.7999988 0.4,1 1.6,2.6 4.3,2 2.8,-0.7 12.4,-3.2 17.7,-4.6 2.8,5 8.4,15.2 9.5,16.7 1.4,2 2.4,1.6 4.5,1 1.7,-0.5 26.2,-9.3 27.3,-9.8 1.1,-0.5 1.8,-0.8 1,-1.9 -0.6,-0.8 -7,-9.5 -10.4,-14 2.3,-0.6 10.6,-2.8 11.5,-3.1 1,-0.3 1.2,-0.8 0.6,-1.4 z m -46.3,9.5 c -0.3,0.1 -14.6,3.5 -15.3,3.7 -0.8,0.2 -0.8,0.1 -0.8,-0.2 -0.2,-0.3 -17,-35.0999988 -17.3,-35.4999988 -0.2,-0.4 -0.2,-0.8 0,-0.8 0.2,0 13.5,-1.2 13.9,-1.2 0.5,0 0.4,0.1 0.6,0.4 0,0 18.7,32.2999988 19,32.7999988 0.4,0.5 0.2,0.7 -0.1,0.8 z m 40.2,7.5 c 0.2,0.4 0.5,0.6 -0.3,0.8 -0.7,0.3 -24.1,8.2 -24.6,8.4 -0.5,0.2 -0.8,0.3 -1.4,-0.6 -0.6,-0.9 -8.2,-14 -8.2,-14 l 24.9,-6.5 c 0.6,-0.2 0.8,-0.3 1.2,0.3 0.4,0.7 8.2,11.3 8.4,11.6 z m 1.6,-17.6 c -0.6,0.1 -9.7,2.4 -9.7,2.4 l -7.5,-10.2 c -0.2,-0.3 -0.4,-0.6 0.1,-0.7 0.5,-0.1 9,-1.6 9.4,-1.7 0.4,-0.1 0.7,-0.2 1.2,0.5 0.5,0.6 6.9,8.8 7.2,9.1 0.3,0.3 -0.1,0.5 -0.7,0.6 z"
     id="path1"
     inkscape:export-filename="..\Desktop\ies\_dwes25\md\img\laravel.png"
     inkscape:export-xdpi="96"
     inkscape:export-ydpi="96"
     style="fill:#dd62b5;fill-opacity:1" />
  <metadata
     id="metadata1">
    <rdf:RDF>
      <cc:Work
         rdf:about="">
        <dc:title>laravel</dc:title>
      </cc:Work>
    </rdf:RDF>
  </metadata>
</svg>
