<?xml version="1.0" encoding="UTF-8" standalone="no"?>
<svg
   width="625.59381"
   height="428.32959"
   viewBox="0 0 21.044976 14.402676"
   version="1.1"
   id="svg1"
   sodipodi:docname="laravel_auro.svg"
   inkscape:version="1.4.2 (f4327f4, 2025-05-13)"
   xmlns:inkscape="http://www.inkscape.org/namespaces/inkscape"
   xmlns:sodipodi="http://sodipodi.sourceforge.net/DTD/sodipodi-0.dtd"
   xmlns="http://www.w3.org/2000/svg"
   xmlns:svg="http://www.w3.org/2000/svg"
   xmlns:rdf="http://www.w3.org/1999/02/22-rdf-syntax-ns#"
   xmlns:cc="http://creativecommons.org/ns#"
   xmlns:dc="http://purl.org/dc/elements/1.1/">
  <defs
     id="defs1" />
  <sodipodi:namedview
     id="namedview1"
     pagecolor="#ffffff"
     bordercolor="#000000"
     borderopacity="0.25"
     inkscape:showpageshadow="2"
     inkscape:pageopacity="0.0"
     inkscape:pagecheckerboard="0"
     inkscape:deskcolor="#d1d1d1"
     inkscape:zoom="0.6036194"
     inkscape:cx="84.490326"
     inkscape:cy="401.74322"
     inkscape:window-width="1920"
     inkscape:window-height="1009"
     inkscape:window-x="1358"
     inkscape:window-y="-8"
     inkscape:window-maximized="1"
     inkscape:current-layer="svg1" />
  <title
     id="title1">laravel</title>
  <path
     fill="#fb503b"
     d="M 20.960552,6.7273452 C 20.810467,6.5772596 18.884368,4.1508755 18.559183,3.7506471 18.208983,3.3504188 18.058897,3.4254616 17.833769,3.4504759 17.60864,3.4754899 15.182256,3.9007328 14.907099,3.925747 14.631942,3.975776 14.456842,4.0758326 14.631942,4.3259753 14.782028,4.5511038 16.382941,6.802388 16.733141,7.3276877 L 10.354502,8.8535581 5.3016195,0.37372083 C 5.1015054,0.0735496 5.0514768,-0.02650748 4.60122,-0.00149321 4.1509631,0.02352106 0.6239511,0.32369229 0.3738084,0.32369229 0.12366571,0.34870656 -0.15149125,0.44876364 0.09865144,1.0491061 0.34879414,1.6494485 4.3510773,10.254357 4.4511343,10.5045 c 0.1000571,0.250142 0.4002284,0.650371 1.0756136,0.500285 0.7003996,-0.1751 3.1017694,-0.800457 4.4275257,-1.1506561 0.7003994,1.2507131 2.1011994,3.8021691 2.3763554,4.1773831 0.3502,0.500285 0.600343,0.400228 1.125643,0.250142 0.425242,-0.125071 6.553738,-2.326327 6.828895,-2.451398 0.275157,-0.125071 0.450257,-0.200114 0.250143,-0.475271 C 20.385224,11.154871 18.784311,8.9786294 17.933826,7.8529873 18.509154,7.7029017 20.585338,7.1525878 20.810467,7.077545 21.060609,7.0025022 21.110638,6.8774308 20.960552,6.7273452 Z M 9.3789454,9.1037008 C 9.3039026,9.1287151 5.7268621,9.9792002 5.5517622,10.029229 5.351648,10.079257 5.351648,10.054243 5.351648,9.9792002 5.3016195,9.9041574 1.0992223,1.1991917 1.0241794,1.0991346 c -0.0500285,-0.10005703 -0.0500285,-0.20011411 0,-0.20011411 0.050029,0 3.3769264,-0.30017123 3.4769835,-0.30017123 0.1250713,0 0.1000571,0.0250143 0.1500856,0.10005707 0,0 4.6776684,8.07960897 4.7527112,8.20468027 0.1000571,0.1250714 0.050028,0.1750999 -0.025014,0.2001142 z M 19.434682,10.979771 c 0.05003,0.100057 0.125071,0.150085 -0.07504,0.200114 -0.1751,0.07504 -6.028439,2.05117 -6.15351,2.101199 -0.125071,0.05003 -0.200114,0.07504 -0.3502,-0.150086 -0.150085,-0.225128 -2.05117,-3.5019976 -2.05117,-3.5019976 l 6.228553,-1.6259275 c 0.150086,-0.050029 0.200114,-0.075043 0.300171,0.075043 0.100057,0.1750999 2.05117,2.8266121 2.101199,2.9016551 z M 19.83491,6.5772596 C 19.684825,6.6022736 17.408526,7.177602 17.408526,7.177602 l -1.87607,-2.5514554 c -0.05003,-0.075043 -0.100057,-0.1500856 0.02501,-0.1750999 0.125072,-0.025014 2.251284,-0.4002283 2.351342,-0.4252426 0.100057,-0.025014 0.175099,-0.050029 0.300171,0.1250714 0.125071,0.1500856 1.725984,2.2012557 1.801027,2.2762985 0.07504,0.075043 -0.02501,0.1250713 -0.1751,0.1500856 z"
     id="path1"
     style="fill:#ffc105;fill-opacity:1;stroke-width:0.250143" />
  <metadata
     id="metadata1">
    <rdf:RDF>
      <cc:Work
         rdf:about="">
        <dc:title>laravel</dc:title>
      </cc:Work>
    </rdf:RDF>
  </metadata>
</svg>
