<?xml version="1.0" encoding="UTF-8" standalone="no"?>
<svg
   viewBox="0 0 0.923232 0.4616211"
   width="24"
   height="12"
   version="1.1"
   id="svg1"
   sodipodi:docname="php_logo.svg"
   inkscape:version="1.4.2 (f4327f4, 2025-05-13)"
   xmlns:inkscape="http://www.inkscape.org/namespaces/inkscape"
   xmlns:sodipodi="http://sodipodi.sourceforge.net/DTD/sodipodi-0.dtd"
   xmlns="http://www.w3.org/2000/svg"
   xmlns:svg="http://www.w3.org/2000/svg">
  <defs
     id="defs1" />
  <sodipodi:namedview
     id="namedview1"
     pagecolor="#ffffff"
     bordercolor="#000000"
     borderopacity="0.25"
     inkscape:showpageshadow="2"
     inkscape:pageopacity="0.0"
     inkscape:pagecheckerboard="false"
     inkscape:deskcolor="#d1d1d1"
     inkscape:zoom="6.6123101"
     inkscape:cx="-7.2591876"
     inkscape:cy="8.998368"
     inkscape:window-width="1366"
     inkscape:window-height="697"
     inkscape:window-x="-8"
     inkscape:window-y="-8"
     inkscape:window-maximized="1"
     inkscape:current-layer="svg1" />
  <path
     d="m 0.07305347,0.09644275 h 0.136921 c 0.040188,3.381e-4 0.069309,0.011924 0.087364,0.034741 0.018055,0.022817 0.024012,0.053982 0.017881,0.0934945 -0.00238,0.0180553 -0.00766,0.0357628 -0.015838,0.0531335 a 0.15794511,0.15794511 0 0 1 -0.032698,0.0470029 c -0.017033,0.0177082 -0.035252,0.0289476 -0.054666,0.0337195 -0.019414,0.004775 -0.039513,0.007155 -0.060286,0.007155 h -0.061308 l -0.019414,0.097071 H -5.5292395e-6 Z m 0.059775,0.058242 -0.030654,0.15326988 c 0.00204,3.3815e-4 0.00409,5.091e-4 0.00613,5.091e-4 h 0.00715 c 0.032698,3.3822e-4 0.059949,-0.002888 0.081744,-0.009707 0.021795,-0.007155 0.036447,-0.0320129 0.043938,-0.0745914 0.00613,-0.0357628 0,-0.0563728 -0.018393,-0.0618189 -0.018055,-0.00545 -0.040698,-0.008 -0.06795,-0.00766 -0.00409,3.382e-4 -0.008,5.092e-4 -0.011751,5.092e-4 h -0.010729 z m 0.26328687,-0.1558244 h 0.070504 l -0.019925,0.097582 h 0.063352 c 0.0347407,6.858e-4 0.0606237,0.00784 0.0776567,0.021458 0.0173708,0.013621 0.0224794,0.039513 0.0153267,0.077657 l -0.0342301,0.17012954 h -0.0715264 l 0.032698,-0.16246607 c 0.0034,-0.0170333 0.00238,-0.0291215 -0.00307,-0.0362735 -0.00545,-0.00715 -0.017197,-0.010729 -0.035252,-0.010729 l -0.05671,-5.091e-4 -0.041893,0.20997982 h -0.070504 z m 0.28262391,0.097582 h 0.13692117 c 0.0401876,3.382e-4 0.0693091,0.011924 0.0873638,0.034742 0.0180553,0.022817 0.0240121,0.053982 0.0178814,0.0934945 -0.00238,0.0180553 -0.007663,0.0357628 -0.0158381,0.0531335 a 0.15794511,0.15794511 0 0 1 -0.0326975,0.0470029 c -0.0170333,0.0177082 -0.0352522,0.0289476 -0.0546662,0.0337195 -0.0194141,0.004775 -0.0395127,0.007155 -0.0602863,0.007155 h -0.0613083 l -0.0194141,0.097071 h -0.0710149 z m 0.0597756,0.058242 -0.0306541,0.15326985 c 0.002041,3.3815e-4 0.00409,5.091e-4 0.006131,5.091e-4 h 0.007155 c 0.0326975,3.3822e-4 0.0599488,-0.002888 0.0817439,-0.009707 0.0217949,-0.007155 0.0364473,-0.0320129 0.0439375,-0.0745914 0.006131,-0.0357628 0,-0.0563727 -0.0183928,-0.061819 -0.0180553,-0.00545 -0.0406983,-0.008 -0.0679496,-0.00766 -0.00409,3.381e-4 -0.008001,5.092e-4 -0.0117507,5.092e-4 h -0.0107287 z"
     id="path1"
     style="stroke-width:0.00963961" />
</svg>
