<?xml version="1.0" encoding="UTF-8" standalone="no"?>
<svg
   width="84.1"
   height="57.6"
   viewBox="0 0 84.1 57.6"
   version="1.1"
   id="svg1"
   sodipodi:docname="laravel.svg"
   inkscape:version="1.3.2 (1:1.3.2+202311252150+091e20ef0f)"
   xmlns:inkscape="http://www.inkscape.org/namespaces/inkscape"
   xmlns:sodipodi="http://sodipodi.sourceforge.net/DTD/sodipodi-0.dtd"
   xmlns="http://www.w3.org/2000/svg"
   xmlns:svg="http://www.w3.org/2000/svg">
  <defs
     id="defs1" />
  <sodipodi:namedview
     id="namedview1"
     pagecolor="#ffffff"
     bordercolor="#000000"
     borderopacity="0.25"
     inkscape:showpageshadow="2"
     inkscape:pageopacity="0.0"
     inkscape:pagecheckerboard="0"
     inkscape:deskcolor="#d1d1d1"
     inkscape:zoom="9.0048915"
     inkscape:cx="51.694126"
     inkscape:cy="30.427907"
     inkscape:window-width="1920"
     inkscape:window-height="1008"
     inkscape:window-x="0"
     inkscape:window-y="0"
     inkscape:window-maximized="1"
     inkscape:current-layer="svg1" />
  <path
     fill="#fb503b"
     d="m 74.840973,26.9 c -0.53585,-0.6 -7.41259,-10.3 -8.573598,-11.9 -1.250317,-1.6 -1.786167,-1.3 -2.589942,-1.2 -0.803775,0.1 -9.466682,1.8 -10.449073,1.9 -0.982392,0.2 -1.60755,0.6 -0.982392,1.6 0.53585,0.9 6.251583,9.9 7.501899,12 L 36.974245,35.4 18.933965,1.5 C 18.219498,0.3 18.040882,-0.1 16.433332,0 14.825782,0.1 2.2333088,1.3 1.3402256,1.3 0.4471424,1.4 -0.53524912,1.8 0.35783408,4.2 1.2509173,6.6 15.540249,41 15.897482,42 c 0.357233,1 1.428933,2.6 3.840258,2 2.500633,-0.7 11.074231,-3.2 15.807572,-4.6 2.500633,5 7.501899,15.2 8.484291,16.7 1.250316,2 2.143399,1.6 4.018874,1 1.518242,-0.5 23.39878,-9.3 24.381172,-9.8 0.982391,-0.5 1.607549,-0.8 0.893083,-1.9 -0.53585,-0.8 -6.251583,-9.5 -9.288065,-14 2.054091,-0.6 9.466681,-2.8 10.270456,-3.1 0.893084,-0.3 1.0717,-0.8 0.53585,-1.4 z m -41.349752,9.5 c -0.267925,0.1 -13.039015,3.5 -13.664173,3.7 -0.714467,0.2 -0.714467,0.1 -0.714467,-0.2 C 18.933965,39.6 3.9301669,4.8 3.6622419,4.4 3.4836253,4 3.4836253,3.6 3.6622419,3.6 3.8408586,3.6 15.718865,2.4 16.076098,2.4 c 0.446542,0 0.357234,0.1 0.53585,0.4 0,0 16.700656,32.3 16.968581,32.8 0.357234,0.5 0.178617,0.7 -0.08931,0.8 z m 35.901945,7.5 c 0.178616,0.4 0.446541,0.6 -0.267925,0.8 -0.625158,0.3 -21.523305,8.2 -21.969847,8.4 -0.446542,0.2 -0.714467,0.3 -1.250317,-0.6 -0.535849,-0.9 -7.323282,-14 -7.323282,-14 L 60.819567,32 c 0.53585,-0.2 0.714467,-0.3 1.0717,0.3 0.357233,0.7 7.323282,11.3 7.501899,11.6 z m 1.428933,-17.6 c -0.53585,0.1 -8.662907,2.4 -8.662907,2.4 L 55.461068,18.5 c -0.178617,-0.3 -0.357234,-0.6 0.08931,-0.7 0.446542,-0.1 8.037749,-1.6 8.394982,-1.7 0.357233,-0.1 0.625158,-0.2 1.0717,0.5 0.446542,0.6 6.162274,8.8 6.430199,9.1 0.267925,0.3 -0.08931,0.5 -0.625158,0.6 z"
     id="path1"
     style="stroke-width:0.945031" />
</svg>
